<svg width="64" height="64" viewBox="0 0 64 64" fill="none" xmlns="http://www.w3.org/2000/svg">
<path d="M18.4064 48.8806L10.5986 57.2038C9.58745 58.2817 7.84144 58.249 6.79637 57.2038C5.75131 56.1586 5.71791 54.4133 6.79637 53.4016L15.1477 45.5674" stroke="#1DAF8A" stroke-width="1.8" stroke-miterlimit="22.9256" stroke-linecap="round" stroke-linejoin="round"/>
<path d="M33.6436 47.1717C38.2868 42.5285 38.2868 35.0003 33.6436 30.3571C29.0004 25.7139 21.4723 25.7139 16.8291 30.3571C12.1859 35.0003 12.1859 42.5285 16.8291 47.1717C21.4723 51.8149 29.0004 51.8149 33.6436 47.1717Z" stroke="#1DAF8A" stroke-width="1.8" stroke-miterlimit="22.9256" stroke-linecap="round" stroke-linejoin="round"/>
<path d="M21.0078 27.1208V6H48.4872L57.9993 15.5122V55.6746H21.0078V50.4082" stroke="#1DAF8A" stroke-width="1.8" stroke-miterlimit="22.9256" stroke-linecap="round" stroke-linejoin="round"/>
<path d="M57.4719 15.5122H48.4883V6.52844" stroke="#1DAF8A" stroke-width="1.8" stroke-miterlimit="22.9256" stroke-linecap="round" stroke-linejoin="round"/>
<path d="M26.8203 10.7561H43.7308" stroke="#1DAF8A" stroke-width="1.8" stroke-miterlimit="22.9256" stroke-linecap="round" stroke-linejoin="round"/>
<path d="M26.8203 15.5122H35.2756" stroke="#1DAF8A" stroke-width="1.8" stroke-miterlimit="22.9256" stroke-linecap="round" stroke-linejoin="round"/>
<path d="M26.8203 22.118H53.2429" stroke="#1DAF8A" stroke-width="1.8" stroke-miterlimit="22.9256" stroke-linecap="round" stroke-linejoin="round"/>
<path d="M36.8828 26.8739H53.2438" stroke="#1DAF8A" stroke-width="1.8" stroke-miterlimit="22.9256" stroke-linecap="round" stroke-linejoin="round"/>
<path d="M41.7109 36.386H53.2432" stroke="#1DAF8A" stroke-width="1.8" stroke-miterlimit="22.9256" stroke-linecap="round" stroke-linejoin="round"/>
<path d="M41.7109 41.1422H47.477" stroke="#1DAF8A" stroke-width="1.8" stroke-miterlimit="22.9256" stroke-linecap="round" stroke-linejoin="round"/>
<path d="M40.2773 45.8982H53.2425" stroke="#1DAF8A" stroke-width="1.8" stroke-miterlimit="22.9256" stroke-linecap="round" stroke-linejoin="round"/>
<path d="M36.8848 50.6542H40.0336" stroke="#1DAF8A" stroke-width="1.8" stroke-miterlimit="22.9256" stroke-linecap="round" stroke-linejoin="round"/>
<path d="M28.8022 36.3864L24.046 41.1426L21.668 38.7646" stroke="#1DAF8A" stroke-width="1.8" stroke-miterlimit="22.9256" stroke-linecap="round" stroke-linejoin="round"/>
</svg>
