<svg width="60" height="60" viewBox="0 0 60 60" fill="none" xmlns="http://www.w3.org/2000/svg">
<path d="M28.3235 22.4517C23.2367 22.4517 19.0977 26.5907 19.0977 31.6775C19.0977 36.7642 23.2367 40.9033 28.3235 40.9033C33.4102 40.9033 37.5493 36.7642 37.5493 31.6775C37.5493 26.5907 33.4102 22.4517 28.3235 22.4517ZM28.3235 39.2259C24.161 39.2259 20.7751 35.8399 20.7751 31.6775C20.7751 27.515 24.161 24.1291 28.3235 24.1291C32.4859 24.1291 35.8718 27.515 35.8718 31.6775C35.8718 35.8399 32.4859 39.2259 28.3235 39.2259Z" fill="#1DAF8A"/>
<path d="M53.4839 32.5161C52.3921 32.5161 51.4694 33.2197 51.1221 34.1935H40.6518C40.8185 33.37 40.9032 32.528 40.9032 31.6774C40.9032 31.394 40.8791 31.1172 40.8606 30.8387H48.4516C52.614 30.8387 56 27.4527 56 23.2903C56 19.5186 53.2164 16.3935 49.5975 15.8386C48.658 13.7742 46.5711 12.3871 44.2581 12.3871C43.5873 12.3871 42.9201 12.5038 42.2903 12.7266C40.0797 7.47155 34.9123 4 29.1613 4C22.1412 4 16.2534 9.05642 15.1145 15.8869C11.6516 16.5725 9.03226 19.6292 9.03226 23.2903C9.03226 27.1845 11.9964 30.3976 15.7866 30.7961C15.7661 31.0885 15.7419 31.3797 15.7419 31.6774C15.7419 33.9822 16.3751 36.1376 17.4619 37.9972L15.7419 39.7172L14.9032 38.8785L5.28755 48.4942C4.45703 49.3247 4 50.4284 4 51.6033C4 54.0273 5.97269 56 8.39667 56C9.57079 56 10.6753 55.543 11.5058 54.7124L21.1215 45.0968L20.2828 44.2581L22.0028 42.5381C23.8624 43.6249 26.0178 44.2581 28.3226 44.2581C31.5189 44.2581 34.5416 43.0696 36.8739 40.9049L42.2334 40.9032L43.9108 42.5806H47.7673C48.1146 43.5545 49.0372 44.2581 50.129 44.2581C51.5161 44.2581 52.6452 43.129 52.6452 41.7419C52.6452 40.3549 51.5161 39.2258 50.129 39.2258C49.0372 39.2258 48.1146 39.9294 47.7673 40.9032H44.6053L42.9279 39.2258L36.1965 39.2274L35.9516 39.4674C33.9024 41.4753 31.1934 42.5806 28.3226 42.5806C22.3107 42.5806 17.4194 37.6893 17.4194 31.6774C17.4194 25.6656 22.3107 20.7742 28.3226 20.7742C34.3344 20.7742 39.2258 25.6656 39.2258 31.6774C39.2258 32.7401 39.0739 33.7877 38.7745 34.7923L38.4526 35.871H51.1221C51.4694 36.8448 52.3921 37.5484 53.4839 37.5484C54.8709 37.5484 56 36.4193 56 35.0323C56 33.6452 54.8709 32.5161 53.4839 32.5161ZM50.129 40.9032C50.5918 40.9032 50.9677 41.2792 50.9677 41.7419C50.9677 42.2047 50.5918 42.5806 50.129 42.5806C49.6663 42.5806 49.2903 42.2047 49.2903 41.7419C49.2903 41.2792 49.6663 40.9032 50.129 40.9032ZM10.3198 53.5265C9.80626 54.04 9.12276 54.3226 8.39667 54.3226C6.89699 54.3226 5.67742 53.103 5.67742 51.6033C5.67742 50.8772 5.95999 50.1937 6.47354 49.6802L14.9032 41.2505L18.7495 45.0968L10.3198 53.5265ZM20.5887 41.5802L19.0968 43.0721L16.9279 40.9032L18.4198 39.4113C19.0534 40.2197 19.7803 40.9466 20.5887 41.5802ZM28.3226 19.0968C22.2571 19.0968 17.181 23.4111 16.0012 29.1318C13.0354 28.8402 10.7097 26.3315 10.7097 23.2903C10.7097 20.0538 13.3442 17.4194 16.5806 17.4194C18.0123 17.4194 19.392 17.9403 20.463 18.8871L21.5736 17.629C20.2574 16.4676 18.5808 15.8116 16.8305 15.7538C17.9972 9.93403 23.1077 5.67742 29.1613 5.67742C34.504 5.67742 39.2754 9.07403 41.033 14.1284L41.3603 15.0683L42.2309 14.5871C42.8497 14.2455 43.55 14.0645 44.2581 14.0645C45.6193 14.0645 46.868 14.737 47.644 15.7956C45.2712 16.0532 43.1233 17.4226 41.9139 19.5153L43.3649 20.3557C44.4133 18.5447 46.3614 17.4194 48.4516 17.4194C51.6881 17.4194 54.3226 20.0538 54.3226 23.2903C54.3226 26.5268 51.6881 29.1613 48.4516 29.1613H40.6501C39.4809 23.4255 34.3983 19.0968 28.3226 19.0968ZM53.4839 35.871C53.0211 35.871 52.6452 35.495 52.6452 35.0323C52.6452 34.5695 53.0211 34.1935 53.4839 34.1935C53.9466 34.1935 54.3226 34.5695 54.3226 35.0323C54.3226 35.495 53.9466 35.871 53.4839 35.871Z" fill="#1DAF8A"/>
<path d="M19.2461 13.7149L20.7708 14.4144C22.2713 11.1451 25.5647 9.0324 29.1603 9.0324V7.35498C24.9115 7.35498 21.0198 9.85186 19.2461 13.7149Z" fill="#1DAF8A"/>
<path d="M28.3223 35.871V37.5485C31.5588 37.5485 34.1932 34.914 34.1932 31.6775H32.5158C32.5158 33.9897 30.6345 35.871 28.3223 35.871Z" fill="#1DAF8A"/>
</svg>
