<svg width="60" height="60" viewBox="0 0 60 60" fill="none" xmlns="http://www.w3.org/2000/svg">
<path d="M5 8.90627V5.80484C5 5.36036 5.36036 5 5.80483 5H18.2797C18.7242 5 19.0845 5.36036 19.0845 5.80484V17.2737C19.0845 17.7182 18.7242 18.0786 18.2797 18.0786H5.80483C5.36036 18.0786 5 17.7182 5 17.2737V12.5" stroke="#1DAF8A" stroke-width="1.8" stroke-miterlimit="10" stroke-linecap="round" stroke-linejoin="round"/>
<path d="M8.52148 8.31982H12.5456" stroke="#1DAF8A" stroke-width="1.8" stroke-miterlimit="10" stroke-linecap="round" stroke-linejoin="round"/>
<path d="M8.52148 11.5396H15.5637" stroke="#1DAF8A" stroke-width="1.8" stroke-miterlimit="10" stroke-linecap="round" stroke-linejoin="round"/>
<path d="M8.52148 14.7583H15.5637" stroke="#1DAF8A" stroke-width="1.8" stroke-miterlimit="10" stroke-linecap="round" stroke-linejoin="round"/>
<path d="M36.2367 18.0786H23.7619C23.3174 18.0786 22.957 17.7182 22.957 17.2737V5.80484C22.957 5.36036 23.3174 5 23.7619 5H36.2367C36.6812 5 37.0415 5.36036 37.0415 5.80484V17.2737C37.0415 17.7182 36.6812 18.0786 36.2367 18.0786Z" stroke="#1DAF8A" stroke-width="1.8" stroke-miterlimit="10" stroke-linecap="round" stroke-linejoin="round"/>
<path d="M26.4785 8.31982H30.5027" stroke="#1DAF8A" stroke-width="1.8" stroke-miterlimit="10" stroke-linecap="round" stroke-linejoin="round"/>
<path d="M26.4785 11.5396H33.5208" stroke="#1DAF8A" stroke-width="1.8" stroke-miterlimit="10" stroke-linecap="round" stroke-linejoin="round"/>
<path d="M26.4785 14.7583H33.5208" stroke="#1DAF8A" stroke-width="1.8" stroke-miterlimit="10" stroke-linecap="round" stroke-linejoin="round"/>
<path d="M54.1957 18.0786H41.7208C41.2764 18.0786 40.916 17.7182 40.916 17.2737V5.80484C40.916 5.36036 41.2764 5 41.7208 5H54.1957C54.6402 5 55.0005 5.36036 55.0005 5.80484V17.2737C55.0005 17.7182 54.6402 18.0786 54.1957 18.0786Z" stroke="#1DAF8A" stroke-width="1.8" stroke-miterlimit="10" stroke-linecap="round" stroke-linejoin="round"/>
<path d="M44.4375 8.31982H48.4616" stroke="#1DAF8A" stroke-width="1.8" stroke-miterlimit="10" stroke-linecap="round" stroke-linejoin="round"/>
<path d="M44.4375 11.5396H51.4798" stroke="#1DAF8A" stroke-width="1.8" stroke-miterlimit="10" stroke-linecap="round" stroke-linejoin="round"/>
<path d="M44.4375 14.7583H51.4798" stroke="#1DAF8A" stroke-width="1.8" stroke-miterlimit="10" stroke-linecap="round" stroke-linejoin="round"/>
<path d="M27.9883 31.2686L30.0004 32.7776L32.0124 31.2686" stroke="#1DAF8A" stroke-width="1.8" stroke-miterlimit="10" stroke-linecap="round" stroke-linejoin="round"/>
<path d="M30 32.4683V22.2534" stroke="#1DAF8A" stroke-width="1.8" stroke-miterlimit="10" stroke-linecap="round" stroke-linejoin="round"/>
<path d="M23.0515 31.2686L21.0394 32.7776L19.0273 31.2686" stroke="#1DAF8A" stroke-width="1.8" stroke-miterlimit="10" stroke-linecap="round" stroke-linejoin="round"/>
<path d="M21.0393 32.3425C21.0393 32.3425 21.5553 27.8375 17.4306 26.7309C14.4648 25.9352 12.9034 24.0145 12.4004 21.9019" stroke="#1DAF8A" stroke-width="1.8" stroke-miterlimit="10" stroke-linecap="round" stroke-linejoin="round"/>
<path d="M36.9473 31.2686L38.9593 32.7776L40.9714 31.2686" stroke="#1DAF8A" stroke-width="1.8" stroke-miterlimit="10" stroke-linecap="round" stroke-linejoin="round"/>
<path d="M38.9601 32.3425C38.9601 32.3425 38.4441 27.8375 42.5689 26.7309C45.5347 25.9352 47.096 24.0145 47.5991 21.9019" stroke="#1DAF8A" stroke-width="1.8" stroke-miterlimit="10" stroke-linecap="round" stroke-linejoin="round"/>
<path d="M33.0198 46.449H26.9818L19.8398 39.6079H40.1618L33.0198 46.449Z" stroke="#1DAF8A" stroke-width="1.8" stroke-miterlimit="10" stroke-linecap="round" stroke-linejoin="round"/>
<path d="M32.118 55.0001H27.883C27.3856 55.0001 26.9824 54.5969 26.9824 54.0995V46.4487H33.0186V54.0995C33.0186 54.5969 32.6154 55.0001 32.118 55.0001Z" stroke="#1DAF8A" stroke-width="1.8" stroke-miterlimit="10" stroke-linecap="round" stroke-linejoin="round"/>
<path d="M37.6926 36.5898H41.8707C42.7041 36.5898 43.3797 37.2655 43.3797 38.0989C43.3797 38.9323 42.7041 39.608 41.8707 39.608H18.1282C17.2948 39.608 16.6191 38.9323 16.6191 38.0989C16.6191 37.2655 17.2948 36.5898 18.1282 36.5898H34.0615" stroke="#1DAF8A" stroke-width="1.8" stroke-miterlimit="10" stroke-linecap="round" stroke-linejoin="round"/>
</svg>
