<svg width="60" height="60" viewBox="0 0 60 60" fill="none" xmlns="http://www.w3.org/2000/svg">
<path d="M50.8 4H9.2C6.32934 4.00284 4.00284 6.32934 4 9.2V50.8C4.00284 53.6707 6.32934 55.9972 9.2 56H50.8C53.6707 55.9972 55.9972 53.6707 56 50.8V9.2C55.9972 6.32934 53.6707 4.00284 50.8 4ZM9.2 5.73337H50.8C52.7146 5.73337 54.2666 7.28545 54.2666 9.2V14.4H5.73337V9.2C5.73337 7.28545 7.28545 5.73337 9.2 5.73337ZM50.8 54.2666H9.2C7.28545 54.2666 5.73337 52.7146 5.73337 50.8V16.1334H54.2667V50.8C54.2666 52.7146 52.7146 54.2666 50.8 54.2666Z" fill="#1DAF8A"/>
<path d="M10.0648 12.6668C11.5007 12.6668 12.6648 11.5027 12.6648 10.0668C12.6648 8.63091 11.5007 7.4668 10.0648 7.4668C8.62895 7.4668 7.46484 8.63091 7.46484 10.0668C7.46484 11.5027 8.62895 12.6668 10.0648 12.6668ZM10.0648 9.20016C10.5435 9.20016 10.9315 9.58823 10.9315 10.0668C10.9315 10.5454 10.5434 10.9334 10.0648 10.9334C9.58628 10.9334 9.19821 10.5455 9.19821 10.0668C9.19821 9.58813 9.58628 9.20016 10.0648 9.20016Z" fill="#1DAF8A"/>
<path d="M16.9984 12.6668C18.4344 12.6668 19.5984 11.5027 19.5984 10.0668C19.5984 8.63091 18.4343 7.4668 16.9984 7.4668C15.5625 7.4668 14.3984 8.63091 14.3984 10.0668C14.3984 11.5027 15.5625 12.6668 16.9984 12.6668ZM16.9984 9.20016C17.4771 9.20016 17.8651 9.58823 17.8651 10.0668C17.8651 10.5454 17.477 10.9334 16.9984 10.9334C16.5198 10.9334 16.1318 10.5454 16.1318 10.0668C16.1318 9.58823 16.5198 9.20016 16.9984 9.20016Z" fill="#1DAF8A"/>
<path d="M23.932 12.6668C25.3679 12.6668 26.532 11.5027 26.532 10.0668C26.532 8.63091 25.3679 7.4668 23.932 7.4668C22.4961 7.4668 21.332 8.63091 21.332 10.0668C21.332 11.5027 22.496 12.6668 23.932 12.6668ZM23.932 9.20016C24.4107 9.20016 24.7987 9.58823 24.7987 10.0668C24.7987 10.5454 24.4106 10.9334 23.932 10.9334C23.4535 10.9334 23.0654 10.5454 23.0654 10.0668C23.0654 9.58823 23.4534 9.20016 23.932 9.20016Z" fill="#1DAF8A"/>
<path d="M41.268 12.6668H49.9346C51.3705 12.6668 52.5346 11.5027 52.5346 10.0668C52.5346 8.63091 51.3705 7.4668 49.9346 7.4668H41.268C39.8321 7.4668 38.668 8.63091 38.668 10.0668C38.668 11.5027 39.8321 12.6668 41.268 12.6668ZM41.268 9.20016H49.9346C50.4133 9.20016 50.8012 9.58823 50.8012 10.0668C50.8012 10.5454 50.4133 10.9334 49.9346 10.9334H41.268C40.7893 10.9334 40.4013 10.5454 40.4013 10.0668C40.4013 9.58823 40.7894 9.20016 41.268 9.20016Z" fill="#1DAF8A"/>
<path d="M10.0659 41.2665H29.1325C29.6111 41.2665 29.9991 40.8785 29.9991 40.3998C29.9991 39.9212 29.6111 39.5332 29.1325 39.5332H10.0659C9.58719 39.5332 9.19922 39.9212 9.19922 40.3998C9.19922 40.8785 9.58729 41.2665 10.0659 41.2665Z" fill="#1DAF8A"/>
<path d="M10.0659 45.6H15.2659C15.7445 45.6 16.1325 45.2119 16.1325 44.7333C16.1325 44.2548 15.7444 43.8667 15.2659 43.8667H10.0659C9.58719 43.8667 9.19922 44.2547 9.19922 44.7333C9.19922 45.212 9.58729 45.6 10.0659 45.6Z" fill="#1DAF8A"/>
<path d="M20.4659 48.2002H10.0659C9.58719 48.2002 9.19922 48.5883 9.19922 49.0668C9.19922 49.5455 9.58729 49.9335 10.0659 49.9335H20.4659C20.9445 49.9335 21.3325 49.5454 21.3325 49.0668C21.3326 48.5883 20.9445 48.2002 20.4659 48.2002Z" fill="#1DAF8A"/>
<path d="M31.7344 40.3998C31.7344 40.8785 32.1223 41.2665 32.601 41.2665H38.6676C39.1463 41.2665 39.5343 40.8785 39.5343 40.3998C39.5343 39.9212 39.1462 39.5332 38.6676 39.5332H32.601C32.1223 39.5332 31.7344 39.9212 31.7344 40.3998Z" fill="#1DAF8A"/>
<path d="M49.9323 39.5332H42.1323C41.6536 39.5332 41.2656 39.9212 41.2656 40.3998C41.2656 40.8785 41.6537 41.2665 42.1323 41.2665H49.9323C50.4109 41.2665 50.7989 40.8785 50.7989 40.3998C50.7989 39.9212 50.4109 39.5332 49.9323 39.5332Z" fill="#1DAF8A"/>
<path d="M21.3338 43.8667H18.7338C18.2552 43.8667 17.8672 44.2547 17.8672 44.7333C17.8672 45.212 18.2553 45.6 18.7338 45.6H21.3338C21.8125 45.6 22.2005 45.2119 22.2005 44.7333C22.2005 44.2548 21.8125 43.8667 21.3338 43.8667Z" fill="#1DAF8A"/>
<path d="M24.8002 43.8667C24.3216 43.8667 23.9336 44.2547 23.9336 44.7333C23.9336 45.212 24.3217 45.6 24.8002 45.6H35.2002C35.6789 45.6 36.0669 45.2119 36.0669 44.7333C36.0669 44.2548 35.6789 43.8667 35.2002 43.8667H24.8002Z" fill="#1DAF8A"/>
<path d="M49.9341 43.8667H38.6674C38.1888 43.8667 37.8008 44.2547 37.8008 44.7333C37.8008 45.212 38.1888 45.6 38.6674 45.6H49.934C50.4127 45.6 50.8007 45.2119 50.8007 44.7333C50.8007 44.2548 50.4128 43.8667 49.9341 43.8667Z" fill="#1DAF8A"/>
<path d="M40.3997 48.2002H23.933C23.4544 48.2002 23.0664 48.5883 23.0664 49.0668C23.0664 49.5455 23.4545 49.9335 23.933 49.9335H40.3997C40.8783 49.9335 41.2663 49.5454 41.2663 49.0668C41.2663 48.5883 40.8783 48.2002 40.3997 48.2002Z" fill="#1DAF8A"/>
<path d="M49.9333 48.2002H43.8666C43.388 48.2002 43 48.5883 43 49.0668C43 49.5455 43.388 49.9335 43.8666 49.9335H49.9333C50.4119 49.9335 50.7999 49.5454 50.7999 49.0668C50.7999 48.5883 50.4119 48.2002 49.9333 48.2002Z" fill="#1DAF8A"/>
<path d="M10.1903 33.0464C10.4369 33.4565 10.9692 33.5892 11.3794 33.3428L20.046 28.1428C20.3066 27.986 20.4661 27.7041 20.4661 27.4C20.4661 27.0959 20.3066 26.814 20.046 26.6573L11.3794 21.4573C10.97 21.2213 10.4471 21.3567 10.2036 21.7617C9.96017 22.1667 10.0861 22.6921 10.4868 22.9428L17.9149 27.4L10.4868 31.8573C10.0766 32.1039 9.94382 32.6362 10.1903 33.0464Z" fill="#1DAF8A"/>
<path d="M23.0659 33.4667H33.4659C33.9445 33.4667 34.3325 33.0786 34.3325 32.6C34.3325 32.1215 33.9444 31.7334 33.4659 31.7334H23.0659C22.5872 31.7334 22.1992 32.1214 22.1992 32.6C22.1992 33.0787 22.5873 33.4667 23.0659 33.4667Z" fill="#1DAF8A"/>
</svg>
