<svg width="64" height="64" viewBox="0 0 64 64" fill="none" xmlns="http://www.w3.org/2000/svg">
<mask id="mask0_987_7173" style="mask-type:luminance" maskUnits="userSpaceOnUse" x="4" y="4" width="56" height="56">
<path d="M4 4H60V60H4V4Z" fill="white"/>
</mask>
<g mask="url(#mask0_987_7173)">
<path d="M20.2891 58.9062H40.4141V57.3789C40.4141 55.8062 39.1391 54.5312 37.5664 54.5312H23.1368C21.564 54.5312 20.2891 55.8062 20.2891 57.3789V58.9062Z" stroke="#1DAF8A" stroke-width="1.8" stroke-miterlimit="10" stroke-linecap="round" stroke-linejoin="round"/>
<path d="M26.8516 54.5312H33.8516V48.625H26.8516V54.5312Z" stroke="#1DAF8A" stroke-width="1.8" stroke-miterlimit="10" stroke-linecap="round" stroke-linejoin="round"/>
<path d="M55.5993 27.2969V45.34C55.5993 47.1543 54.1286 48.625 52.3143 48.625H8.37861C6.56441 48.625 5.09375 47.1543 5.09375 45.34V15.16C5.09375 13.3457 6.56441 11.875 8.37861 11.875H35.2812" stroke="#1DAF8A" stroke-width="1.8" stroke-miterlimit="10" stroke-linecap="round" stroke-linejoin="round"/>
<path d="M46.85 41.7472H5.09375" stroke="#1DAF8A" stroke-width="1.8" stroke-miterlimit="10" stroke-linecap="round" stroke-linejoin="round"/>
<path d="M5.64062 36.4844H14.5365" stroke="#1DAF8A" stroke-width="1.8" stroke-miterlimit="10" stroke-linecap="round" stroke-linejoin="round"/>
<path d="M38.1604 29.1594L34.8406 25.8396L36.6421 24.0379C36.6422 24.0378 36.6422 24.0377 36.6422 24.0375C35.9732 22.9895 35.4799 21.8185 35.2026 20.5664H32.6564L32.6562 20.5663V15.8712H32.6564H35.1997C35.4757 14.6172 35.9682 13.4445 36.637 12.3947C36.6371 12.3946 36.6371 12.3945 36.637 12.3943L34.8406 10.5979L38.1604 7.27808L39.9538 9.07128C39.9539 9.07139 39.954 9.07139 39.9542 9.07128C41.0044 8.39961 42.1782 7.90458 43.4337 7.62665V5.09375L48.1288 5.09386V7.6237C49.386 7.90042 50.5617 8.39469 51.6136 9.06614C51.6137 9.06625 51.6139 9.06614 51.614 9.06603L53.4021 7.27808L56.7219 10.598L54.934 12.386C54.9339 12.3861 54.9339 12.3863 54.9339 12.3864C55.6053 13.4383 56.0997 14.614 56.3763 15.8712H58.9061H58.9063V20.5663L58.9061 20.5664H56.3733C56.0954 21.8218 55.6004 22.9957 54.9287 24.0459C54.9286 24.046 54.9286 24.0461 54.9287 24.0462L56.7219 25.8396L53.4021 29.1594M38.1604 29.1594C38.1604 29.1595 38.1604 29.1595 38.1604 29.1594ZM38.1604 29.1594L39.9621 27.3579C39.9622 27.3578 39.9624 27.3578 39.9624 27.3578C41.0105 28.0268 42.1815 28.5201 43.4337 28.7974V31.3438H48.1288V28.8003C49.3828 28.5243 50.5555 28.0318 51.6053 27.363C51.6054 27.3629 51.6056 27.363 51.6057 27.3632L53.4021 29.1594M53.4021 29.1594C53.4021 29.1595 53.4021 29.1595 53.4021 29.1594Z" stroke="#1DAF8A" stroke-width="1.8" stroke-miterlimit="10" stroke-linecap="round" stroke-linejoin="round"/>
<path d="M51.4688 18.2188C51.4688 15.0776 48.9224 12.5312 45.7812 12.5312C42.6401 12.5312 40.0938 15.0776 40.0938 18.2188C40.0938 21.3599 42.6401 23.9062 45.7812 23.9062C48.9224 23.9062 51.4688 21.3599 51.4688 18.2188Z" stroke="#1DAF8A" stroke-width="1.8" stroke-miterlimit="10" stroke-linecap="round" stroke-linejoin="round"/>
<path d="M27.8118 25.5716C27.8118 25.1576 27.769 24.7536 27.688 24.3636L29.3827 23.3852L27.536 20.1865L25.8401 21.1657C25.2405 20.6295 24.5309 20.2138 23.749 19.9568V18.0001H20.0557V19.9568C19.2739 20.2138 18.5641 20.6295 17.9645 21.1657L16.2686 20.1865L14.4219 23.3852L16.1166 24.3636C16.0356 24.7536 15.9928 25.1576 15.9928 25.5716C15.9928 25.9856 16.0356 26.3896 16.1166 26.7795L14.4219 27.758L16.2686 30.9567L17.9645 29.9774C18.5641 30.5137 19.2739 30.9293 20.0557 31.1863V33.1431H23.749V31.1863C24.5309 30.9293 25.2405 30.5137 25.8401 29.9774L27.536 30.9567L29.3827 27.758L27.688 26.7795C27.769 26.3896 27.8118 25.9856 27.8118 25.5716Z" stroke="#1DAF8A" stroke-width="1.8" stroke-miterlimit="10" stroke-linecap="round" stroke-linejoin="round"/>
</g>
</svg>
